<svg width="32" height="32" fill="none" xmlns="http://www.w3.org/2000/svg"><g filter="url(#filter0_d_404_7)"><path fill-rule="evenodd" clip-rule="evenodd" d="M6.7 23.4c2.2 2.25 6.15 2.55 9.35 2.6 3.2-.05 7.15-.4 9.35-2.75 2.25-2.2 2.55-6.15 2.6-9.35-.05-3.15-.4-7.1-2.7-9.3-2.2-2.25-6.15-2.55-9.35-2.6-3.2.05-7.15.4-9.35 2.7-2.25 2.2-2.55 6.15-2.6 9.35.05 3.2.4 7.15 2.7 9.35zm-.3-9.35c.026 1.539.124 3.111.446 4.514.327 1.425.835 2.453 1.513 3.102l.029.027.028.03c.64.653 1.661 1.144 3.095 1.457 1.409.307 2.987.395 4.539.42 1.54-.026 3.108-.124 4.505-.45 1.418-.33 2.443-.846 3.093-1.54l.036-.039.038-.037c.654-.64 1.145-1.661 1.458-3.095.307-1.409.394-2.986.42-4.539-.026-1.513-.124-3.072-.445-4.468-.327-1.42-.835-2.449-1.514-3.098l-.029-.027-.028-.03c-.64-.653-1.661-1.144-3.095-1.457-1.409-.307-2.986-.394-4.539-.42-1.539.026-3.111.124-4.513.446-1.426.327-2.454.835-3.103 1.513l-.027.029-.03.028c-.653.64-1.144 1.661-1.457 3.095-.307 1.409-.394 2.987-.42 4.539z" fill="#262F56"/></g><mask id="a" style="mask-type:alpha" maskUnits="userSpaceOnUse" x="4" y="2" width="24" height="24"><path d="M16.05 26c-3.2-.05-7.15-.35-9.35-2.6-2.3-2.2-2.65-6.15-2.7-9.35.05-3.2.35-7.15 2.6-9.35 2.2-2.3 6.15-2.65 9.35-2.7 3.2.05 7.15.35 9.35 2.6 2.3 2.2 2.65 6.15 2.7 9.3-.05 3.2-.35 7.15-2.6 9.35-2.2 2.35-6.15 2.7-9.35 2.75z" fill="#F8F5EE"/></mask><g mask="url(#a)"><path d="M20.17 18.65l.497-3.234h-3.111v-2.098c0-.884.434-1.747 1.829-1.747H20.8V8.819S19.515 8.6 18.288 8.6c-2.563 0-4.238 1.548-4.238 4.352v2.464H11.2v3.234h2.85v7.815a11.494 11.494 0 003.506 0V18.65h2.614z" fill="#262F56"/></g><defs><filter id="filter0_d_404_7" x="0" y="0" width="32" height="32" filterUnits="userSpaceOnUse" color-interpolation-filters="sRGB"><feFlood flood-opacity="0" result="BackgroundImageFix"/><feColorMatrix in="SourceAlpha" values="0 0 0 0 0 0 0 0 0 0 0 0 0 0 0 0 0 0 127 0" result="hardAlpha"/><feOffset dy="2"/><feGaussianBlur stdDeviation="2"/><feColorMatrix values="0 0 0 0 0.607843 0 0 0 0 0.517647 0 0 0 0 0.529412 0 0 0 0.05 0"/><feBlend in2="BackgroundImageFix" result="effect1_dropShadow_404_7"/><feBlend in="SourceGraphic" in2="effect1_dropShadow_404_7" result="shape"/></filter></defs></svg>