<svg width="24" height="24" fill="none" xmlns="http://www.w3.org/2000/svg"><path fill-rule="evenodd" clip-rule="evenodd" d="M2.7 21.4c2.2 2.25 6.15 2.55 9.35 2.6 3.2-.05 7.15-.4 9.35-2.75 2.25-2.2 2.55-6.15 2.6-9.35-.05-3.15-.4-7.1-2.7-9.3C19.1.35 15.15.05 11.95 0 8.75.05 4.8.4 2.6 2.7.35 4.9.05 8.85 0 12.05c.05 3.2.4 7.15 2.7 9.35zm1.86-1.88c1.76 1.8 4.92 2.04 7.48 2.08 2.56-.04 5.72-.32 7.48-2.2 1.8-1.76 2.04-4.92 2.08-7.48-.04-2.52-.32-5.68-2.16-7.44-1.76-1.8-4.92-2.04-7.48-2.08-2.56.04-5.72.32-7.48 2.16-1.8 1.76-2.04 4.92-2.08 7.48.04 2.56.32 5.72 2.16 7.48z" fill="#262F56"/><path d="M17.913 4.759a1.329 1.329 0 100 2.658 1.329 1.329 0 000-2.658zm-5.912 1.553a5.689 5.689 0 100 11.377 5.689 5.689 0 000-11.377zm0 1.996a3.692 3.692 0 110 7.384 3.692 3.692 0 010-7.384z" fill="#262F56"/></svg>