<svg width="168" height="72" viewBox="0 0 168 72" fill="none" xmlns="http://www.w3.org/2000/svg">
<path fill-rule="evenodd" clip-rule="evenodd" d="M12 0.100006C14.4301 0.100006 16.4 2.06995 16.4 4.50001V7H17.1C17.9401 7 18.3601 7 18.681 7.16349C18.9632 7.3073 19.1927 7.53677 19.3365 7.81901C19.5 8.13988 19.5 8.55992 19.5 9.4V16.6C19.5 18.8402 19.5 19.9603 19.064 20.816C18.6805 21.5686 18.0686 22.1805 17.316 22.564C16.4603 23 15.3402 23 13.1 23H10.9C8.65979 23 7.53968 23 6.68404 22.564C5.93139 22.1805 5.31947 21.5686 4.93597 20.816C4.5 19.9603 4.5 18.8402 4.5 16.6V9.4C4.5 8.55992 4.5 8.13988 4.66349 7.81901C4.8073 7.53677 5.03677 7.3073 5.31901 7.16349C5.63988 7 6.05992 7 6.9 7H7.60002V4.50001C7.60002 2.06995 9.56997 0.100006 12 0.100006ZM14.6 7V4.50001C14.6 3.06407 13.436 1.90001 12 1.90001C10.5641 1.90001 9.40002 3.06407 9.40002 4.50001V7H14.6ZM9.5 9.5C9.5 10.0523 9.05228 10.5 8.5 10.5C7.94772 10.5 7.5 10.0523 7.5 9.5C7.5 8.94771 7.94772 8.5 8.5 8.5C9.05228 8.5 9.5 8.94771 9.5 9.5ZM15.5 10.5C16.0523 10.5 16.5 10.0523 16.5 9.5C16.5 8.94771 16.0523 8.5 15.5 8.5C14.9477 8.5 14.5 8.94771 14.5 9.5C14.5 10.0523 14.9477 10.5 15.5 10.5Z" fill="#262F56"/>
<path fill-rule="evenodd" clip-rule="evenodd" d="M6.41866 50.2031C6.29712 50.1392 6.15916 50.1022 6.01274 50.1001C6.00849 50.1001 6.00424 50.1 5.99998 50.1M5.99125 50.1001C5.7704 50.1022 5.56857 50.1838 5.41304 50.3177C5.3796 50.3465 5.3485 50.3775 5.3199 50.4105C5.1829 50.5684 5.09998 50.7746 5.09998 51V65V70C5.09998 70.4971 5.50292 70.9 5.99998 70.9C6.49703 70.9 6.89998 70.4971 6.89998 70V65.5563L20.4025 58.805C20.7074 58.6526 20.9 58.3409 20.9 58C20.9 57.6591 20.7074 57.3475 20.4025 57.1951L6.41866 50.2031" fill="#262F56"/>
<path fill-rule="evenodd" clip-rule="evenodd" d="M60.9732 70.3819C63.3952 68.7589 69.5 64.1114 69.5 58.5C69.5 53.2533 65.2467 49 60 49C54.7533 49 50.5 53.2533 50.5 58.5C50.5 64.1114 56.6048 68.7589 59.0268 70.3819C59.6218 70.7806 60.3782 70.7806 60.9732 70.3819ZM60 61.5C61.6569 61.5 63 60.1569 63 58.5C63 56.8431 61.6569 55.5 60 55.5C58.3431 55.5 57 56.8431 57 58.5C57 60.1569 58.3431 61.5 60 61.5Z" fill="#262F56"/>
<path fill-rule="evenodd" clip-rule="evenodd" d="M116.546 52H99.4542C98.3749 52 97.5 52.8749 97.5 53.9542C97.5 54.6075 97.8265 55.2177 98.3702 55.5801L99.5552 56.3702L106.336 60.8906C106.462 60.9746 106.593 61.0481 106.727 61.111C107.667 61.5519 108.782 61.4784 109.664 60.8906L116.445 56.3702L117.63 55.5801C118.173 55.2177 118.5 54.6075 118.5 53.9542C118.5 52.8749 117.625 52 116.546 52ZM98 59C98 58.7912 98.0213 58.5874 98.0619 58.3907C98.1764 57.8356 98.8342 57.6922 99.3057 58.0066L105.504 62.1387C107.015 63.1464 108.985 63.1464 110.496 62.1387L116.694 58.0066C117.166 57.6922 117.824 57.8356 117.938 58.3907C117.979 58.5874 118 58.7912 118 59V66C118 67.1046 117.105 68 116 68H100C98.8954 68 98 67.1046 98 66V59Z" fill="#262F56"/>
<path fill-rule="evenodd" clip-rule="evenodd" d="M59.3544 1.52792C56.8822 3.50737 54.6612 4.75306 51.4999 4.96704C50.9489 5.00434 50.4987 5.45826 50.5114 6.01039C50.8566 21.0336 58.8893 22.8201 59.8966 22.9852C59.9656 22.9965 60.0343 22.9965 60.1034 22.9852C61.1106 22.8201 69.1433 21.0336 69.4885 6.0104C69.5012 5.45826 69.051 5.00434 68.5 4.96704C65.3387 4.75306 63.1178 3.50737 60.6455 1.52792C60.2687 1.22621 59.7313 1.22621 59.3544 1.52792ZM64.6364 10.1364C64.9878 9.78493 64.9878 9.21508 64.6364 8.86361C64.2849 8.51214 63.7151 8.51214 63.3636 8.86361L59 13.2272L57.1364 11.3636C56.7849 11.0121 56.2151 11.0121 55.8636 11.3636C55.5121 11.7151 55.5121 12.2849 55.8636 12.6364L58.3636 15.1364C58.7151 15.4879 59.2849 15.4879 59.6364 15.1364L64.6364 10.1364Z" fill="#262F56"/>
<path fill-rule="evenodd" clip-rule="evenodd" d="M96.3217 2.65652C95.7882 2.79946 95.4716 3.3478 95.6146 3.88126C95.7575 4.41473 96.3059 4.73131 96.8393 4.58837L97.8053 4.32955C98.3387 4.18661 98.8871 4.50319 99.03 5.03666L102.168 16.7495C100.617 17.625 99.791 19.4676 100.273 21.2679C100.845 23.4018 103.038 24.6681 105.172 24.0964C106.973 23.614 108.155 21.9773 108.138 20.1959L117.436 17.7045C117.969 17.5616 118.286 17.0132 118.143 16.4798C118 15.9463 117.452 15.6297 116.918 15.7727L107.62 18.2641C106.907 17 105.552 16.2175 104.1 16.2319L100.962 4.51902C100.533 2.91862 98.888 1.96888 97.2876 2.3977L96.3217 2.65652ZM106.069 19.715L106.067 19.7082C105.778 18.6454 104.684 18.0155 103.619 18.3008C102.552 18.5867 101.919 19.6834 102.205 20.7503C102.491 21.8172 103.588 22.4504 104.655 22.1645C105.719 21.8792 106.352 20.7866 106.071 19.7218L106.069 19.715ZM106.404 3.57848C104.27 4.15025 103.004 6.34359 103.575 8.47746L104.87 13.3071C105.441 15.441 107.635 16.7073 109.768 16.1355L114.598 14.8414C116.732 14.2697 117.998 12.0763 117.427 9.94244L116.132 5.11281C115.561 2.97895 113.367 1.71262 111.233 2.28438L106.404 3.57848ZM110.304 6.01573C109.873 5.7672 109.323 5.91469 109.075 6.34515L107.66 8.79464C107.412 9.2251 107.559 9.77553 107.99 10.0241C108.42 10.2726 108.971 10.1251 109.219 9.69464L109.547 9.12684L110.279 11.8577C110.407 12.3378 110.901 12.6228 111.381 12.4941C111.861 12.3655 112.146 11.872 112.017 11.3918L111.286 8.66097L111.853 8.98879C112.284 9.23731 112.834 9.08983 113.083 8.65936C113.331 8.2289 113.184 7.67847 112.753 7.42994L110.304 6.01573Z" fill="#262F56"/>
<path fill-rule="evenodd" clip-rule="evenodd" d="M148.218 2.09202C148 2.51984 148 3.0799 148 4.2V19.8C148 20.9201 148 21.4802 148.218 21.908C148.41 22.2843 148.716 22.5903 149.092 22.782C149.52 23 150.08 23 151.2 23H160.8C161.92 23 162.48 23 162.908 22.782C163.284 22.5903 163.59 22.2843 163.782 21.908C164 21.4802 164 20.9201 164 19.8V8H160.2C159.08 8 158.52 8 158.092 7.78201C157.716 7.59027 157.41 7.28431 157.218 6.90798C157 6.48016 157 5.9201 157 4.8V1H151.2C150.08 1 149.52 1 149.092 1.21799C148.716 1.40973 148.41 1.71569 148.218 2.09202ZM152 11.1C151.503 11.1 151.1 11.5029 151.1 12C151.1 12.4971 151.503 12.9 152 12.9H160C160.497 12.9 160.9 12.4971 160.9 12C160.9 11.5029 160.497 11.1 160 11.1H152ZM151.1 15.5C151.1 15.0029 151.503 14.6 152 14.6H160C160.497 14.6 160.9 15.0029 160.9 15.5C160.9 15.9971 160.497 16.4 160 16.4H152C151.503 16.4 151.1 15.9971 151.1 15.5ZM152 18.1C151.503 18.1 151.1 18.5029 151.1 19C151.1 19.4971 151.503 19.9 152 19.9H156C156.497 19.9 156.9 19.4971 156.9 19C156.9 18.5029 156.497 18.1 156 18.1H152Z" fill="#262F56"/>
<path opacity="0.5" d="M157 4.8V1L164 8H160.2C159.08 8 158.52 8 158.092 7.78201C157.716 7.59027 157.41 7.28431 157.218 6.90798C157 6.48016 157 5.9201 157 4.8Z" fill="#262F56"/>
</svg>
