<svg width="169" height="217" viewBox="0 0 169 217" fill="none" xmlns="http://www.w3.org/2000/svg">
<path fill-rule="evenodd" clip-rule="evenodd" d="M155.5 5.9C152.407 5.9 149.9 8.4072 149.9 11.5C149.9 14.5928 152.407 17.1 155.5 17.1C157.047 17.1 158.445 16.4742 159.46 15.4598C160.474 14.4454 161.1 13.0466 161.1 11.5C161.1 8.4072 158.593 5.9 155.5 5.9ZM148.1 11.5C148.1 7.41309 151.413 4.1 155.5 4.1C159.587 4.1 162.9 7.41309 162.9 11.5C162.9 13.2187 162.313 14.8016 161.33 16.0575L165.636 20.3636C165.988 20.7151 165.988 21.2849 165.636 21.6364C165.285 21.9879 164.715 21.9879 164.364 21.6364L160.058 17.3303C158.802 18.3132 157.219 18.9 155.5 18.9C151.413 18.9 148.1 15.5869 148.1 11.5Z" fill="#262F56"/>
<path fill-rule="evenodd" clip-rule="evenodd" d="M100.4 10.8261C100.4 7.18753 103.355 4.23785 107 4.23785C110.645 4.23785 113.6 7.18753 113.6 10.8261C113.6 14.4648 110.645 17.4144 107 17.4144C103.355 17.4144 100.4 14.4648 100.4 10.8261ZM107 2.44105C102.361 2.44105 98.6 6.19518 98.6 10.8261C98.6 15.4571 102.361 19.2112 107 19.2112C108.995 19.2112 110.828 18.5167 112.269 17.3566L117.364 22.4419C117.715 22.7927 118.285 22.7927 118.636 22.4419C118.988 22.091 118.988 21.5222 118.636 21.1714L113.542 16.0861C114.704 14.6476 115.4 12.818 115.4 10.8261C115.4 6.19518 111.639 2.44105 107 2.44105Z" fill="#262F56"/>
<path fill-rule="evenodd" clip-rule="evenodd" d="M58 4.4C56.0118 4.4 54.4 6.01177 54.4 8C54.4 9.98822 56.0118 11.6 58 11.6C59.9882 11.6 61.6 9.98822 61.6 8C61.6 6.01177 59.9882 4.4 58 4.4ZM52.6 8C52.6 5.01766 55.0176 2.6 58 2.6C60.9823 2.6 63.4 5.01766 63.4 8C63.4 10.9823 60.9823 13.4 58 13.4C55.0176 13.4 52.6 10.9823 52.6 8Z" fill="#262F56"/>
<path fill-rule="evenodd" clip-rule="evenodd" d="M63.1 3.5C63.1 3.00294 63.5029 2.6 64 2.6C66.9823 2.6 69.4 5.01766 69.4 8C69.4 10.9823 66.9823 13.4 64 13.4C63.5029 13.4 63.1 12.9971 63.1 12.5C63.1 12.0029 63.5029 11.6 64 11.6C65.9882 11.6 67.6 9.98822 67.6 8C67.6 6.01177 65.9882 4.4 64 4.4C63.5029 4.4 63.1 3.99705 63.1 3.5Z" fill="#262F56"/>
<path fill-rule="evenodd" clip-rule="evenodd" d="M53.4905 17.5671C52.4101 18.2694 51.9 19.1445 51.9 20C51.9 20.0613 51.9309 20.223 52.1747 20.4724C52.4163 20.7194 52.8108 20.9904 53.3693 21.2418C54.4825 21.7427 56.1024 22.1 58 22.1C59.8975 22.1 61.5175 21.7427 62.6306 21.2418C63.1892 20.9904 63.5837 20.7194 63.8252 20.4724C64.0691 20.223 64.1 20.0613 64.1 20C64.1 19.1445 63.5899 18.2694 62.5095 17.5671C61.4314 16.8664 59.8596 16.4 58 16.4C56.1403 16.4 54.5685 16.8664 53.4905 17.5671ZM52.5095 16.0579C53.9314 15.1336 55.8596 14.6 58 14.6C60.1403 14.6 62.0685 15.1336 63.4905 16.0579C64.9101 16.9806 65.9 18.3555 65.9 20C65.9 20.6887 65.5559 21.277 65.1122 21.7308C64.6663 22.1869 64.0608 22.5721 63.3693 22.8832C61.9825 23.5073 60.1024 23.9 58 23.9C55.8975 23.9 54.0175 23.5073 52.6306 22.8832C51.9392 22.5721 51.3337 22.1869 50.8877 21.7308C50.4441 21.277 50.1 20.6887 50.1 20C50.1 18.3555 51.0899 16.9806 52.5095 16.0579Z" fill="#262F56"/>
<path fill-rule="evenodd" clip-rule="evenodd" d="M65.6309 15.6546C65.76 15.1746 66.2537 14.8902 66.7337 15.0192C68.1345 15.3959 69.3946 16.0187 70.3226 16.8426C71.2514 17.6673 71.9 18.7475 71.9 20C71.9 20.5449 71.6649 21.0163 71.3586 21.39C71.0535 21.7623 70.6431 22.0829 70.1864 22.3555C69.272 22.9014 68.0409 23.333 66.6717 23.599C66.1838 23.6939 65.7114 23.3752 65.6165 22.8872C65.5217 22.3993 65.8404 21.9269 66.3283 21.8321C67.5592 21.5929 68.5781 21.2193 69.2637 20.81C69.607 20.605 69.8341 20.4105 69.9664 20.249C70.0977 20.0889 70.1 20.0077 70.1 20C70.1 19.4105 69.7987 18.7846 69.1275 18.1887C68.4555 17.592 67.4656 17.08 66.2663 16.7575C65.7863 16.6284 65.5018 16.1346 65.6309 15.6546Z" fill="#262F56"/>
<path fill-rule="evenodd" clip-rule="evenodd" d="M13 3.8C11.2879 3.8 9.89998 5.18792 9.89998 6.9V9H16.1V6.9C16.1 5.18792 14.7121 3.8 13 3.8ZM17.9 9V6.9C17.9 4.19381 15.7062 2 13 2C10.2938 2 8.09998 4.1938 8.09998 6.9V9H6.49998C5.45063 9 4.59998 9.85066 4.59998 10.9V21.9C4.59998 22.9493 5.45063 23.8 6.49998 23.8H19.5C20.5493 23.8 21.4 22.9493 21.4 21.9V10.9C21.4 9.85066 20.5493 9 19.5 9H17.9ZM6.49998 10.8C6.44475 10.8 6.39998 10.8448 6.39998 10.9V21.9C6.39998 21.9552 6.44475 22 6.49998 22H19.5C19.5552 22 19.6 21.9552 19.6 21.9V10.9C19.6 10.8448 19.5552 10.8 19.5 10.8H6.49998ZM10 12.9C10 13.4523 9.55228 13.9 9 13.9C8.44772 13.9 8 13.4523 8 12.9C8 12.3477 8.44772 11.9 9 11.9C9.55228 11.9 10 12.3477 10 12.9ZM17 13.9C17.5523 13.9 18 13.4523 18 12.9C18 12.3477 17.5523 11.9 17 11.9C16.4477 11.9 16 12.3477 16 12.9C16 13.4523 16.4477 13.9 17 13.9Z" fill="#262F56"/>
<path fill-rule="evenodd" clip-rule="evenodd" d="M0.711209 52.8554C0.582561 52.3753 0.867485 51.8818 1.3476 51.7531L2.31353 51.4943C3.86058 51.0798 5.45076 51.9979 5.86529 53.5449L9.22994 66.1019C9.35859 66.5821 9.07366 67.0756 8.59354 67.2042C8.11342 67.3329 7.61992 67.0479 7.49127 66.5678L4.12662 54.0108C3.96939 53.424 3.36622 53.0757 2.7794 53.233L1.81348 53.4918C1.33336 53.6204 0.839856 53.3355 0.711209 52.8554ZM11.8956 54.4137C10.7754 54.7139 10.1105 55.8654 10.4107 56.9857L11.7048 61.8153C12.005 62.9356 13.1565 63.6004 14.2768 63.3003L19.1064 62.0062C20.2267 61.706 20.8915 60.5545 20.5913 59.4342L19.2972 54.6046C18.9971 53.4843 17.8455 52.8195 16.7253 53.1196L11.8956 54.4137ZM8.67205 57.4516C8.11458 55.3711 9.34925 53.2325 11.4298 52.6751L16.2594 51.381C18.3399 50.8235 20.4784 52.0582 21.0359 54.1387L22.33 58.9683C22.8875 61.0488 21.6528 63.1874 19.5723 63.7448L14.7426 65.0389C12.6621 65.5964 10.5236 64.3617 9.96615 62.2812L8.67205 57.4516ZM14.204 55.8281C14.4525 55.3976 15.0029 55.2502 15.4334 55.4987L17.2705 56.5593C17.701 56.8079 17.8485 57.3583 17.5999 57.7888C17.3598 58.2047 16.8379 58.3564 16.4146 58.142L16.888 59.9089C17.0166 60.389 16.7317 60.8825 16.2516 61.0111C15.7715 61.1398 15.278 60.8549 15.1493 60.3747L14.6759 58.6079C14.4165 59.0052 13.8886 59.1348 13.4727 58.8946C13.0423 58.6461 12.8948 58.0957 13.1433 57.6652L14.204 55.8281ZM11.1655 68.6891C11.0369 68.209 11.3218 67.7155 11.8019 67.5869L21.9441 64.8693C22.4242 64.7406 22.9177 65.0255 23.0464 65.5057C23.175 65.9858 22.8901 66.4793 22.41 66.6079L12.2678 69.3255C11.7877 69.4542 11.2942 69.1693 11.1655 68.6891Z" fill="#262F56"/>
<path fill-rule="evenodd" clip-rule="evenodd" d="M8.59352 67.2042C7.47324 67.5044 6.80842 68.6559 7.1086 69.7762C7.40877 70.8965 8.56028 71.5613 9.68056 71.2611C10.8008 70.9609 11.4657 69.8094 11.1655 68.6891C10.8653 67.5689 9.7138 66.904 8.59352 67.2042ZM5.36993 70.2421C4.81246 68.1615 6.04713 66.023 8.12765 65.4656C10.2082 64.9081 12.3467 66.1427 12.9042 68.2233C13.4616 70.3038 12.227 72.4423 10.1464 72.9998C8.06592 73.5572 5.9274 72.3226 5.36993 70.2421Z" fill="#262F56"/>
<path d="M3.243 151.854L12.49 146.31C12.6454 146.217 12.8233 146.167 13.0045 146.167C13.1857 146.167 13.3636 146.217 13.519 146.31L22.757 151.855C22.8311 151.899 22.8925 151.962 22.9351 152.037C22.9776 152.113 23 152.198 23 152.284V165C23 165.265 22.8946 165.52 22.7071 165.707C22.5196 165.895 22.2652 166 22 166H4C3.73478 166 3.48043 165.895 3.29289 165.707C3.10536 165.52 3 165.265 3 165V152.283C2.99998 152.197 3.02236 152.112 3.06495 152.036C3.10753 151.961 3.16888 151.898 3.243 151.854ZM5 153.133V164H21V153.132L13.004 148.332L5 153.132V153.133ZM12.7384 158.433C12.9247 158.587 13.1941 158.585 13.3786 158.429L17.5909 154.88C18.0134 154.524 18.6445 154.578 19.0003 155C19.3559 155.423 19.3019 156.053 18.8798 156.409L13.7113 160.765C13.3421 161.076 12.8034 161.079 12.4309 160.772L7.13556 156.408C6.70941 156.057 6.64877 155.426 6.99989 155C7.3511 154.574 7.98158 154.513 8.40784 154.864L12.7384 158.433Z" fill="#262F56"/>
<path fill-rule="evenodd" clip-rule="evenodd" d="M5.84055 210.568C5.40121 211.008 5.40121 211.72 5.84055 212.159C6.27989 212.599 6.9922 212.599 7.43154 212.159L13 206.591L18.5685 212.159C19.0078 212.599 19.7201 212.599 20.1595 212.159C20.5988 211.72 20.5988 211.008 20.1595 210.568L14.591 205L20.1595 199.432C20.5988 198.992 20.5988 198.28 20.1595 197.841C19.7201 197.401 19.0078 197.401 18.5685 197.841L13 203.409L7.43156 197.841C6.99222 197.401 6.27991 197.401 5.84057 197.841C5.40123 198.28 5.40123 198.992 5.84057 199.432L11.409 205L5.84055 210.568Z" fill="#262F56"/>
<path fill-rule="evenodd" clip-rule="evenodd" d="M66.1364 207.864C66.4879 208.215 66.4879 208.785 66.1364 209.136L61.6364 213.636C61.2849 213.988 60.7151 213.988 60.3636 213.636L55.8636 209.136C55.5122 208.785 55.5122 208.215 55.8636 207.864C56.2151 207.512 56.7849 207.512 57.1364 207.864L60.1 210.827V197C60.1 196.503 60.503 196.1 61 196.1C61.4971 196.1 61.9 196.503 61.9 197V210.827L64.8636 207.864C65.2151 207.512 65.7849 207.512 66.1364 207.864Z" fill="#262F56"/>
<path fill-rule="evenodd" clip-rule="evenodd" d="M103.364 203.636C103.012 203.285 103.012 202.715 103.364 202.364L108.364 197.364C108.715 197.012 109.285 197.012 109.636 197.364L114.636 202.364C114.988 202.715 114.988 203.285 114.636 203.636C114.285 203.988 113.715 203.988 113.364 203.636L109.9 200.173V212C109.9 212.497 109.497 212.9 109 212.9C108.503 212.9 108.1 212.497 108.1 212V200.173L104.636 203.636C104.285 203.988 103.715 203.988 103.364 203.636Z" fill="#262F56"/>
<path d="M157.706 206.771C157.316 207.161 156.684 207.161 156.293 206.771L153.466 203.949C153.074 203.558 153.075 202.924 153.466 202.534C153.856 202.145 154.488 202.145 154.878 202.534L156.647 204.301C156.842 204.496 157.158 204.496 157.353 204.301L159.122 202.534C159.512 202.145 160.144 202.145 160.534 202.534C160.925 202.924 160.925 203.558 160.534 203.949L157.706 206.771Z" fill="#262F56"/>
<path fill-rule="evenodd" clip-rule="evenodd" d="M53.875 148C53.875 147.379 54.3787 146.875 55 146.875H68.5C68.955 146.875 69.3652 147.149 69.5394 147.569C69.7135 147.99 69.6172 148.474 69.2955 148.795L65.591 152.5L69.2955 156.205C69.6172 156.526 69.7135 157.01 69.5394 157.431C69.3652 157.851 68.955 158.125 68.5 158.125H56.125V164.875H56.5C57.1213 164.875 57.625 165.379 57.625 166C57.625 166.621 57.1213 167.125 56.5 167.125H53.5C52.8787 167.125 52.375 166.621 52.375 166C52.375 165.379 52.8787 164.875 53.5 164.875H53.875V148ZM56.125 155.875H65.784L63.2045 153.295C62.7652 152.856 62.7652 152.144 63.2045 151.705L65.784 149.125H56.125V155.875Z" fill="#262F56"/>
<path fill-rule="evenodd" clip-rule="evenodd" d="M118.919 150.081C119.427 150.588 119.427 151.412 118.919 151.919L106.919 163.919C106.412 164.427 105.588 164.427 105.081 163.919L99.0807 157.919C98.5731 157.412 98.5731 156.588 99.0807 156.081C99.5884 155.573 100.412 155.573 100.919 156.081L106 161.162L117.081 150.081C117.588 149.573 118.412 149.573 118.919 150.081Z" fill="#262F56"/>
<path fill-rule="evenodd" clip-rule="evenodd" d="M148.005 149.88C147.384 149.88 146.88 150.384 146.88 151.005C146.88 151.626 147.384 152.13 148.005 152.13H158.505C159.126 152.13 159.63 151.626 159.63 151.005C159.63 150.384 159.126 149.88 158.505 149.88H148.005ZM146.875 157C146.875 156.379 147.379 155.875 148 155.875H166C166.621 155.875 167.125 156.379 167.125 157C167.125 157.621 166.621 158.125 166 158.125H148C147.379 158.125 146.875 157.621 146.875 157ZM146.875 163C146.875 162.379 147.379 161.875 148 161.875H158.5C159.121 161.875 159.625 162.379 159.625 163C159.625 163.621 159.121 164.125 158.5 164.125H148C147.379 164.125 146.875 163.621 146.875 163Z" fill="#262F56"/>
<path fill-rule="evenodd" clip-rule="evenodd" d="M57.1 54C57.1 52.3984 58.3983 51.1 60 51.1H62C63.6016 51.1 64.9 52.3984 64.9 54V54.1H69C69.497 54.1 69.9 54.5029 69.9 55C69.9 55.4971 69.497 55.9 69 55.9H67.842L67.0224 68.1929C66.9209 69.7163 65.6556 70.9 64.1289 70.9H57.8711C56.3443 70.9 55.0791 69.7163 54.9775 68.1929L54.158 55.9H53C52.5029 55.9 52.1 55.4971 52.1 55C52.1 54.5029 52.5029 54.1 53 54.1H57.1V54ZM58.9 54.1H63.1V54C63.1 53.3925 62.6075 52.9 62 52.9H60C59.3925 52.9 58.9 53.3925 58.9 54V54.1ZM55.962 55.9L56.7735 68.0732C56.812 68.651 57.292 69.1 57.8711 69.1H64.1289C64.708 69.1 65.1879 68.651 65.2264 68.0732L66.038 55.9H55.962ZM58.9614 58.1008C59.458 58.0795 59.8779 58.4649 59.8992 58.9615L60.1992 65.9615C60.2204 66.4581 59.8351 66.8779 59.3385 66.8992C58.8419 66.9205 58.4221 66.5351 58.4008 66.0385L58.1008 59.0385C58.0795 58.5419 58.4648 58.1221 58.9614 58.1008ZM63.0385 58.1008C63.5351 58.1221 63.9204 58.5419 63.8991 59.0385L63.5991 66.0385C63.5779 66.5351 63.158 66.9205 62.6614 66.8992C62.1648 66.8779 61.7795 66.4581 61.8008 65.9615L62.1008 58.9615C62.1221 58.4649 62.5419 58.0795 63.0385 58.1008Z" fill="#262F56"/>
<path d="M116 59.7392H110H108H102V61.7357H108H110H116V59.7392Z" fill="#262F56"/>
<path d="M156 59.7392V53.7499H158V59.7392H164V61.7357H158V67.725H156V61.7357H150V59.7392H156Z" fill="#262F56"/>
<path d="M61 119C55.477 119 51 114.523 51 109C51 103.477 55.477 99 61 99C66.523 99 71 103.477 71 109C71 114.523 66.523 119 61 119ZM61 117C63.1217 117 65.1566 116.157 66.6569 114.657C68.1571 113.157 69 111.122 69 109C69 106.878 68.1571 104.843 66.6569 103.343C65.1566 101.843 63.1217 101 61 101C58.8783 101 56.8434 101.843 55.3431 103.343C53.8429 104.843 53 106.878 53 109C53 111.122 53.8429 113.157 55.3431 114.657C56.8434 116.157 58.8783 117 61 117ZM56 109C56 108.448 56.4477 108 57 108H65C65.5523 108 66 108.448 66 109C66 109.552 65.5523 110 65 110H57C56.4477 110 56 109.552 56 109Z" fill="#262F56"/>
<path fill-rule="evenodd" clip-rule="evenodd" d="M108.563 97.7133C108.835 97.5623 109.165 97.5623 109.437 97.7133L118.437 102.713C118.723 102.872 118.9 103.173 118.9 103.5V114.5C118.9 114.827 118.723 115.128 118.437 115.287L109.437 120.287C109.165 120.438 108.835 120.438 108.563 120.287L99.5629 115.287C99.2772 115.128 99.1 114.827 99.1 114.5V103.5C99.1 103.173 99.2772 102.872 99.5629 102.713L108.563 97.7133ZM100.9 104.03V113.97L109 118.47L117.1 113.97V104.03L109 99.5296L100.9 104.03Z" fill="#262F56"/>
<path fill-rule="evenodd" clip-rule="evenodd" d="M99.2133 103.063C99.4547 102.628 100.003 102.472 100.437 102.713L109 107.47L117.563 102.713C117.997 102.472 118.545 102.628 118.787 103.063C119.028 103.497 118.872 104.045 118.437 104.287L109.9 109.03V119.5C109.9 119.997 109.497 120.4 109 120.4C108.503 120.4 108.1 119.997 108.1 119.5V109.03L99.5629 104.287C99.1284 104.045 98.9719 103.497 99.2133 103.063Z" fill="#262F56"/>
<path d="M167 117.007C166.998 117.27 166.893 117.521 166.707 117.707C166.522 117.893 166.271 117.998 166.008 118H147.992C147.729 118 147.476 117.895 147.29 117.709C147.104 117.523 147 117.27 147 117.007V116H165V104.3L157 111.5L147 102.5V101C147 100.735 147.105 100.48 147.293 100.293C147.48 100.105 147.735 100 148 100H166C166.265 100 166.52 100.105 166.707 100.293C166.895 100.48 167 100.735 167 101V117.007ZM149.434 102L157 108.81L164.566 102H149.434ZM145 113C145 112.448 145.448 112 146 112H152C152.552 112 153 112.448 153 113C153 113.552 152.552 114 152 114H146C145.448 114 145 113.552 145 113ZM145 108C145 107.448 145.448 107 146 107H149C149.552 107 150 107.448 150 108C150 108.552 149.552 109 149 109H146C145.448 109 145 108.552 145 108Z" fill="#262F56"/>
<path d="M12 108V105C12 104.448 12.4477 104 13 104C13.5523 104 14 104.448 14 105V108H17C17.5523 108 18 108.448 18 109C18 109.552 17.5523 110 17 110H14V113C14 113.552 13.5523 114 13 114C12.4477 114 12 113.552 12 113V110H9C8.44772 110 8 109.552 8 109C8 108.448 8.44772 108 9 108H12ZM13 119C7.477 119 3 114.523 3 109C3 103.477 7.477 99 13 99C18.523 99 23 103.477 23 109C23 114.523 18.523 119 13 119ZM13 117C15.1217 117 17.1566 116.157 18.6569 114.657C20.1571 113.157 21 111.122 21 109C21 106.878 20.1571 104.843 18.6569 103.343C17.1566 101.843 15.1217 101 13 101C10.8783 101 8.84344 101.843 7.34315 103.343C5.84285 104.843 5 106.878 5 109C5 111.122 5.84285 113.157 7.34315 114.657C8.84344 116.157 10.8783 117 13 117Z" fill="#262F56"/>
</svg>
