<svg width="32" height="32" viewBox="0 0 32 32" fill="none" xmlns="http://www.w3.org/2000/svg">
<g filter="url(#filter0_d_404_7)">
<path fill-rule="evenodd" clip-rule="evenodd" d="M6.7 23.4C8.9 25.65 12.85 25.95 16.05 26C19.25 25.95 23.2 25.6 25.4 23.25C27.65 21.05 27.95 17.1 28 13.9C27.95 10.75 27.6 6.8 25.3 4.6C23.1 2.35 19.15 2.05 15.95 2C12.75 2.05 8.8 2.4 6.6 4.7C4.35 6.9 4.05 10.85 4 14.05C4.05 17.25 4.4 21.2 6.7 23.4ZM6.40031 14.0499C6.42552 15.589 6.52399 17.1615 6.84553 18.5635C7.17251 19.9894 7.68099 21.0172 8.35893 21.6657L8.38795 21.6934L8.41602 21.7221C9.05546 22.3761 10.0772 22.8674 11.5113 23.1801C12.92 23.4873 14.4975 23.5745 16.0499 23.5997C17.5895 23.5745 19.1578 23.4759 20.5552 23.1502C21.9732 22.8196 22.9976 22.3044 23.6479 21.6098L23.6842 21.5711L23.7221 21.534C24.3761 20.8945 24.8674 19.8728 25.1801 18.4387C25.4872 17.0301 25.5744 15.4527 25.5997 13.9004C25.5745 12.3875 25.4762 10.8277 25.1549 9.43212C24.828 8.01185 24.3196 6.98333 23.6411 6.33434L23.6121 6.30659L23.584 6.27788C22.9445 5.62391 21.9228 5.1326 20.4887 4.8199C19.08 4.51274 17.5025 4.42555 15.9501 4.40031C14.411 4.42552 12.8385 4.52399 11.4365 4.84553C10.0106 5.17251 8.98281 5.68099 8.33434 6.35893L8.30659 6.38795L8.27788 6.41602C7.62391 7.05546 7.1326 8.07723 6.8199 9.5113C6.51274 10.92 6.42555 12.4975 6.40031 14.0499Z" fill="#262F56"/>
</g>
<mask id="mask0_404_7" style="mask-type:alpha" maskUnits="userSpaceOnUse" x="4" y="2" width="24" height="24">
<path d="M16.05 26C12.85 25.95 8.9 25.65 6.7 23.4C4.4 21.2 4.05 17.25 4 14.05C4.05 10.85 4.35 6.9 6.6 4.7C8.8 2.4 12.75 2.05 15.95 2C19.15 2.05 23.1 2.35 25.3 4.6C27.6 6.8 27.95 10.75 28 13.9C27.95 17.1 27.65 21.05 25.4 23.25C23.2 25.6 19.25 25.95 16.05 26Z" fill="#F8F5EE"/>
</mask>
<g mask="url(#mask0_404_7)">
<path d="M20.1704 18.6499L20.6674 15.4163H17.5558V13.3183C17.5558 12.4344 17.9897 11.571 19.3846 11.571H20.8V8.81871C20.8 8.81871 19.5155 8.6001 18.2879 8.6001C15.7254 8.6001 14.0497 10.1477 14.0497 12.9519V15.4163H11.2V18.6499H14.0497V26.4648C14.6209 26.5545 15.2063 26.6001 15.8027 26.6001C16.3992 26.6001 16.9846 26.5529 17.5558 26.4648V18.6499H20.1704Z" fill="#262F56"/>
</g>
<defs>
<filter id="filter0_d_404_7" x="0" y="0" width="32" height="32" filterUnits="userSpaceOnUse" color-interpolation-filters="sRGB">
<feFlood flood-opacity="0" result="BackgroundImageFix"/>
<feColorMatrix in="SourceAlpha" type="matrix" values="0 0 0 0 0 0 0 0 0 0 0 0 0 0 0 0 0 0 127 0" result="hardAlpha"/>
<feOffset dy="2"/>
<feGaussianBlur stdDeviation="2"/>
<feColorMatrix type="matrix" values="0 0 0 0 0.607843 0 0 0 0 0.517647 0 0 0 0 0.529412 0 0 0 0.05 0"/>
<feBlend mode="normal" in2="BackgroundImageFix" result="effect1_dropShadow_404_7"/>
<feBlend mode="normal" in="SourceGraphic" in2="effect1_dropShadow_404_7" result="shape"/>
</filter>
</defs>
</svg>
