<svg width="24" height="24" viewBox="0 0 24 24" fill="none" xmlns="http://www.w3.org/2000/svg">
<path fill-rule="evenodd" clip-rule="evenodd" d="M2.7 21.4C4.9 23.65 8.85 23.95 12.05 24C15.25 23.95 19.2 23.6 21.4 21.25C23.65 19.05 23.95 15.1 24 11.9C23.95 8.75 23.6 4.8 21.3 2.6C19.1 0.35 15.15 0.05 11.95 0C8.75 0.05 4.8 0.4 2.6 2.7C0.35 4.9 0.05 8.85 0 12.05C0.05 15.25 0.4 19.2 2.7 21.4ZM4.55996 19.5199C6.31996 21.3199 9.47996 21.5599 12.04 21.5999C14.6 21.5599 17.76 21.2799 19.52 19.3999C21.32 17.6399 21.56 14.4799 21.6 11.9199C21.56 9.39987 21.28 6.23987 19.44 4.47987C17.68 2.67987 14.52 2.43987 11.96 2.39987C9.39996 2.43987 6.23996 2.71987 4.47996 4.55987C2.67996 6.31987 2.43996 9.47987 2.39996 12.0399C2.43996 14.5999 2.71996 17.7599 4.55996 19.5199Z" fill="#262F56"/>
<path d="M17.9135 4.75854C17.1797 4.75854 16.5843 5.35324 16.5843 6.08731C16.5843 6.82116 17.1797 7.41655 17.9135 7.41655C18.6474 7.41655 19.2428 6.82116 19.2428 6.08731C19.2428 5.35347 18.6474 4.75854 17.9135 4.75854ZM12.0008 6.31162C8.85932 6.31162 6.31232 8.85862 6.31232 12.0001C6.31232 15.1415 8.85932 17.6874 12.0008 17.6874C15.1422 17.6874 17.6883 15.1415 17.6883 12.0001C17.6883 8.85862 15.1422 6.31162 12.0008 6.31162ZM12.0008 8.30778C14.0399 8.30778 15.6931 9.96078 15.6931 12.0001C15.6931 14.0392 14.0399 15.6924 12.0008 15.6924C9.96147 15.6924 8.30847 14.0392 8.30847 12.0001C8.30847 9.96078 9.96147 8.30778 12.0008 8.30778Z" fill="#262F56"/>
</svg>
