<svg width="168" height="72" fill="none" xmlns="http://www.w3.org/2000/svg"><path fill-rule="evenodd" clip-rule="evenodd" d="M12 .1a4.4 4.4 0 014.4 4.4V7h.7c.84 0 1.26 0 1.581.163a1.5 1.5 0 01.655.656c.164.32.164.74.164 1.581v7.2c0 2.24 0 3.36-.436 4.216a4 4 0 01-1.748 1.748C16.46 23 15.34 23 13.1 23h-2.2c-2.24 0-3.36 0-4.216-.436a4 4 0 01-1.748-1.748C4.5 19.96 4.5 18.84 4.5 16.6V9.4c0-.84 0-1.26.163-1.581a1.5 1.5 0 01.656-.656C5.639 7 6.059 7 6.9 7h.7V4.5A4.4 4.4 0 0112 .1zM14.6 7V4.5a2.6 2.6 0 10-5.2 0V7h5.2zM9.5 9.5a1 1 0 11-2 0 1 1 0 012 0zm6 1a1 1 0 100-2 1 1 0 000 2zM6.419 50.203a.898.898 0 00-.406-.103H6m-.009 0a.896.896 0 00-.891.9v19a.9.9 0 101.8 0v-4.444l13.503-6.751a.9.9 0 000-1.61L6.418 50.203m54.555 20.179c2.422-1.623 8.527-6.27 8.527-11.882a9.5 9.5 0 00-19 0c0 5.611 6.105 10.259 8.527 11.882a1.733 1.733 0 001.946 0zM60 61.5a3 3 0 100-6 3 3 0 000 6zm56.546-9.5H99.454a1.954 1.954 0 00-1.084 3.58l1.185.79 6.781 4.52a3 3 0 003.328 0l6.781-4.52 1.185-.79a1.956 1.956 0 00-1.084-3.58zM98 59c0-.209.021-.413.062-.61.114-.554.772-.698 1.244-.383l6.198 4.132a4.5 4.5 0 004.992 0l6.198-4.132c.472-.315 1.13-.171 1.244.384.041.196.062.4.062.609v7a2 2 0 01-2 2h-16a2 2 0 01-2-2v-7zM59.354 1.528c-2.472 1.98-4.693 3.225-7.854 3.439-.551.037-1.001.491-.989 1.043.346 15.024 8.378 16.81 9.386 16.975a.635.635 0 00.206 0c1.008-.165 9.04-1.951 9.386-16.975.012-.552-.438-1.006-.989-1.043-3.161-.214-5.382-1.46-7.855-3.44a1.034 1.034 0 00-1.29 0zm5.282 8.608a.9.9 0 00-1.272-1.272L59 13.227l-1.864-1.863a.9.9 0 10-1.272 1.272l2.5 2.5a.9.9 0 001.272 0l5-5zm31.686-7.479a1 1 0 10.517 1.931l.966-.258a1 1 0 011.225.707l3.138 11.713a4 4 0 105.97 3.446l9.298-2.492a1 1 0 00-.518-1.931l-9.298 2.491a4.006 4.006 0 00-3.52-2.032l-3.138-11.713a3 3 0 00-3.674-2.121l-.966.259zm9.747 17.058l-.002-.007a2 2 0 10.004.014l-.002-.007zm.335-16.137a4 4 0 00-2.829 4.9l1.295 4.83a3.999 3.999 0 004.898 2.828l4.83-1.295a4 4 0 002.829-4.899l-1.295-4.83a4 4 0 00-4.899-2.828l-4.829 1.294zm3.9 2.438a.9.9 0 00-1.229.33l-1.415 2.449a.9.9 0 001.559.9l.328-.568.732 2.73a.9.9 0 101.738-.465l-.731-2.731.567.328a.9.9 0 00.9-1.56l-2.449-1.413zm37.914-3.924C148 2.52 148 3.08 148 4.2v15.6c0 1.12 0 1.68.218 2.108.192.376.498.682.874.874.428.218.988.218 2.108.218h9.6c1.12 0 1.68 0 2.108-.218.376-.192.682-.498.874-.874.218-.428.218-.988.218-2.108V8h-3.8c-1.12 0-1.68 0-2.108-.218a2.003 2.003 0 01-.874-.874C157 6.48 157 5.92 157 4.8V1h-5.8c-1.12 0-1.68 0-2.108.218a2.003 2.003 0 00-.874.874zM152 11.1a.9.9 0 000 1.8h8a.9.9 0 000-1.8h-8zm-.9 4.4a.9.9 0 01.9-.9h8a.9.9 0 010 1.8h-8a.9.9 0 01-.9-.9zm.9 2.6a.9.9 0 000 1.8h4a.9.9 0 000-1.8h-4z" fill="#262F56"/><path opacity=".5" d="M157 4.8V1l7 7h-3.8c-1.12 0-1.68 0-2.108-.218a2.003 2.003 0 01-.874-.874C157 6.48 157 5.92 157 4.8z" fill="#262F56"/></svg>