<svg width="169" height="217" fill="none" xmlns="http://www.w3.org/2000/svg"><path fill-rule="evenodd" clip-rule="evenodd" d="M155.5 5.9a5.6 5.6 0 100 11.2 5.6 5.6 0 000-11.2zm-7.4 5.6a7.4 7.4 0 1113.23 4.558l4.306 4.306a.9.9 0 11-1.272 1.272l-4.306-4.306A7.4 7.4 0 01148.1 11.5zm-47.7-.674c0-3.638 2.955-6.588 6.6-6.588 3.645 0 6.6 2.95 6.6 6.588 0 3.639-2.955 6.588-6.6 6.588-3.645 0-6.6-2.95-6.6-6.588zm6.6-8.385c-4.639 0-8.4 3.754-8.4 8.385s3.761 8.385 8.4 8.385a8.374 8.374 0 005.269-1.854l5.095 5.085a.9.9 0 001.272 0 .896.896 0 000-1.27l-5.094-5.086a8.342 8.342 0 001.858-5.26c0-4.63-3.761-8.385-8.4-8.385zM58 4.4a3.6 3.6 0 100 7.2 3.6 3.6 0 000-7.2zM52.6 8a5.4 5.4 0 1110.8 0 5.4 5.4 0 01-10.8 0z" fill="#262F56"/><path fill-rule="evenodd" clip-rule="evenodd" d="M63.1 3.5a.9.9 0 01.9-.9 5.4 5.4 0 010 10.8.9.9 0 110-1.8 3.6 3.6 0 000-7.2.9.9 0 01-.9-.9zm-9.61 14.067c-1.08.702-1.59 1.578-1.59 2.433 0 .061.03.223.275.472.241.247.636.518 1.194.77 1.114.5 2.733.858 4.631.858 1.898 0 3.517-.357 4.63-.858.56-.252.954-.523 1.195-.77.244-.249.275-.41.275-.472 0-.855-.51-1.73-1.59-2.433-1.079-.7-2.65-1.167-4.51-1.167-1.86 0-3.431.466-4.51 1.167zm-.98-1.51c1.42-.922 3.35-1.457 5.49-1.457s4.069.534 5.49 1.458c1.42.923 2.41 2.297 2.41 3.942 0 .689-.344 1.277-.788 1.73-.446.457-1.051.842-1.743 1.153-1.386.624-3.267 1.017-5.369 1.017s-3.983-.393-5.37-1.017c-.69-.31-1.296-.696-1.742-1.152-.444-.454-.788-1.042-.788-1.731 0-1.645.99-3.02 2.41-3.942z" fill="#262F56"/><path fill-rule="evenodd" clip-rule="evenodd" d="M65.63 15.655a.9.9 0 011.104-.636c1.4.377 2.66 1 3.589 1.824.928.824 1.577 1.904 1.577 3.157 0 .545-.235 1.016-.541 1.39-.305.372-.716.693-1.173.965-.914.546-2.145.978-3.514 1.244a.9.9 0 11-.344-1.767c1.231-.24 2.25-.613 2.936-1.022.343-.205.57-.4.702-.561.132-.16.134-.241.134-.249 0-.59-.301-1.215-.972-1.811-.672-.597-1.662-1.109-2.862-1.431a.9.9 0 01-.635-1.103zM13 3.8a3.1 3.1 0 00-3.1 3.1V9h6.2V6.9A3.1 3.1 0 0013 3.8zM17.9 9V6.9a4.9 4.9 0 00-9.8 0V9H6.5a1.9 1.9 0 00-1.9 1.9v11c0 1.05.85 1.9 1.9 1.9h13a1.9 1.9 0 001.9-1.9v-11A1.9 1.9 0 0019.5 9h-1.6zM6.5 10.8a.1.1 0 00-.1.1v11a.1.1 0 00.1.1h13a.1.1 0 00.1-.1v-11a.1.1 0 00-.1-.1h-13zm3.5 2.1a1 1 0 11-2 0 1 1 0 012 0zm7 1a1 1 0 100-2 1 1 0 000 2zM.711 52.855a.9.9 0 01.637-1.102l.966-.259a2.9 2.9 0 013.551 2.05L9.23 66.103a.9.9 0 11-1.739.466L4.127 54.01a1.1 1.1 0 00-1.348-.778l-.966.259a.9.9 0 01-1.102-.637zm11.185 1.559a2.1 2.1 0 00-1.485 2.572l1.294 4.83a2.1 2.1 0 002.572 1.484l4.83-1.294a2.1 2.1 0 001.484-2.572l-1.294-4.83a2.1 2.1 0 00-2.572-1.484l-4.83 1.294zm-3.224 3.038a3.9 3.9 0 012.758-4.777l4.83-1.294a3.9 3.9 0 014.776 2.758l1.294 4.83a3.9 3.9 0 01-2.758 4.776l-4.83 1.294a3.9 3.9 0 01-4.776-2.758l-1.294-4.83zm5.532-1.624a.9.9 0 011.23-.33l1.836 1.061a.9.9 0 01-.855 1.583l.473 1.767a.9.9 0 11-1.739.466l-.473-1.767a.9.9 0 01-1.533-.943l1.061-1.837zM11.165 68.69a.9.9 0 01.637-1.102l10.142-2.718a.9.9 0 11.466 1.739l-10.142 2.718a.9.9 0 01-1.103-.637z" fill="#262F56"/><path fill-rule="evenodd" clip-rule="evenodd" d="M8.594 67.204a2.1 2.1 0 101.087 4.057 2.1 2.1 0 00-1.087-4.057zM5.37 70.242a3.9 3.9 0 117.534-2.019 3.9 3.9 0 01-7.534 2.02z" fill="#262F56"/><path d="M3.243 151.854l9.247-5.544a1.003 1.003 0 011.029 0l9.238 5.545a.497.497 0 01.243.429V165a1 1 0 01-1 1H4a.998.998 0 01-1-1v-12.717a.505.505 0 01.243-.429zM5 153.133V164h16v-10.868l-7.996-4.8-8.004 4.8v.001zm7.738 5.3a.499.499 0 00.64-.004l4.213-3.549a1 1 0 011.289 1.529l-5.169 4.356a1 1 0 01-1.28.007l-5.295-4.364a1 1 0 011.272-1.544l4.33 3.569z" fill="#262F56"/><path fill-rule="evenodd" clip-rule="evenodd" d="M5.84 210.568a1.125 1.125 0 001.592 1.591L13 206.591l5.569 5.568a1.124 1.124 0 101.59-1.591L14.592 205l5.569-5.568a1.125 1.125 0 00-1.591-1.591L13 203.409l-5.568-5.568a1.124 1.124 0 10-1.591 1.591L11.409 205l-5.568 5.568zm60.296-2.704a.899.899 0 010 1.272l-4.5 4.5a.9.9 0 01-1.272 0l-4.5-4.5a.9.9 0 111.272-1.272l2.964 2.963V197a.9.9 0 011.8 0v13.827l2.964-2.963a.9.9 0 011.272 0zm37.228-4.228a.898.898 0 010-1.272l5-5a.898.898 0 011.272 0l5 5a.898.898 0 010 1.272.898.898 0 01-1.272 0l-3.464-3.463V212a.9.9 0 01-1.8 0v-11.827l-3.464 3.463a.898.898 0 01-1.272 0z" fill="#262F56"/><path d="M157.706 206.771a1 1 0 01-1.413 0l-2.827-2.822a1 1 0 111.412-1.415l1.769 1.767a.5.5 0 00.706 0l1.769-1.767a1 1 0 011.412 1.415l-2.828 2.822z" fill="#262F56"/><path fill-rule="evenodd" clip-rule="evenodd" d="M53.875 148c0-.621.504-1.125 1.125-1.125h13.5a1.125 1.125 0 01.796 1.92L65.59 152.5l3.705 3.705a1.125 1.125 0 01-.796 1.92H56.125v6.75h.375a1.125 1.125 0 010 2.25h-3a1.125 1.125 0 010-2.25h.375V148zm2.25 7.875h9.659l-2.58-2.58a1.124 1.124 0 010-1.59l2.58-2.58h-9.659v6.75zm62.794-5.794a1.299 1.299 0 010 1.838l-12 12a1.299 1.299 0 01-1.838 0l-6-6a1.3 1.3 0 111.838-1.838l5.081 5.081 11.081-11.081a1.299 1.299 0 011.838 0zm29.086-.201a1.125 1.125 0 000 2.25h10.5a1.125 1.125 0 000-2.25h-10.5zm-1.13 7.12c0-.621.504-1.125 1.125-1.125h18a1.125 1.125 0 010 2.25h-18a1.125 1.125 0 01-1.125-1.125zm0 6c0-.621.504-1.125 1.125-1.125h10.5a1.125 1.125 0 010 2.25H148a1.125 1.125 0 01-1.125-1.125zM57.1 54a2.9 2.9 0 012.9-2.9h2a2.9 2.9 0 012.9 2.9v.1H69a.9.9 0 010 1.8h-1.158l-.82 12.293A2.9 2.9 0 0164.13 70.9h-6.26a2.9 2.9 0 01-2.894-2.707L54.158 55.9H53a.9.9 0 110-1.8h4.1V54zm1.8.1h4.2V54a1.1 1.1 0 00-1.1-1.1h-2a1.1 1.1 0 00-1.1 1.1v.1zm-2.938 1.8l.811 12.173a1.1 1.1 0 001.098 1.027h6.258a1.1 1.1 0 001.097-1.027l.812-12.173H55.962zm3 2.2a.9.9 0 01.937.861l.3 7a.9.9 0 01-1.798.078l-.3-7a.9.9 0 01.86-.938zm4.076 0a.9.9 0 01.861.938l-.3 7a.9.9 0 11-1.798-.076l.3-7a.9.9 0 01.938-.861z" fill="#262F56"/><path d="M116 59.74h-14v1.996h14v-1.997zm40 0v-5.99h2v5.99h6v1.996h-6v5.989h-2v-5.99h-6V59.74h6zM61 119c-5.523 0-10-4.477-10-10s4.477-10 10-10 10 4.477 10 10-4.477 10-10 10zm0-2a8.001 8.001 0 005.657-13.657 8.001 8.001 0 00-11.314 11.314A8.001 8.001 0 0061 117zm-5-8a1 1 0 011-1h8a1 1 0 010 2h-8a1 1 0 01-1-1z" fill="#262F56"/><path fill-rule="evenodd" clip-rule="evenodd" d="M108.563 97.713a.9.9 0 01.874 0l9 5a.9.9 0 01.463.787v11a.9.9 0 01-.463.787l-9 5a.9.9 0 01-.874 0l-9-5a.9.9 0 01-.463-.787v-11a.9.9 0 01.463-.787l9-5zm-7.663 6.317v9.94l8.1 4.5 8.1-4.5v-9.94l-8.1-4.5-8.1 4.5z" fill="#262F56"/><path fill-rule="evenodd" clip-rule="evenodd" d="M99.213 103.063a.9.9 0 011.224-.35L109 107.47l8.563-4.757a.9.9 0 01.874 1.574l-8.537 4.743v10.47a.9.9 0 01-1.8 0v-10.47l-8.537-4.743a.9.9 0 01-.35-1.224z" fill="#262F56"/><path d="M167 117.007a1 1 0 01-.992.993h-18.016a.994.994 0 01-.992-.993V116h18v-11.7l-8 7.2-10-9V101a.997.997 0 011-1h18a.997.997 0 011 1v16.007zM149.434 102l7.566 6.81 7.566-6.81h-15.132zM145 113a1 1 0 011-1h6a1 1 0 010 2h-6a1 1 0 01-1-1zm0-5a1 1 0 011-1h3a1 1 0 010 2h-3a1 1 0 01-1-1zm-133 0v-3a1 1 0 012 0v3h3a1 1 0 010 2h-3v3a1 1 0 01-2 0v-3H9a1 1 0 010-2h3zm1 11c-5.523 0-10-4.477-10-10s4.477-10 10-10 10 4.477 10 10-4.477 10-10 10zm0-2a8.001 8.001 0 005.657-13.657 8.001 8.001 0 00-11.314 11.314A8.001 8.001 0 0013 117z" fill="#262F56"/></svg>